<svg width="512" height="512" viewBox="0 0 512 512" fill="none" xmlns="http://www.w3.org/2000/svg">
<rect x="16" y="16" width="480" height="480" rx="93.75" fill="#FF2222"/>
<path d="M429.672 292.562H301.703C296.655 292.562 292.562 296.655 292.562 301.703V429.672C292.562 434.72 296.655 438.812 301.703 438.812H429.672C434.72 438.812 438.812 434.72 438.812 429.672V301.703C438.812 296.655 434.72 292.562 429.672 292.562Z" fill="white"/>
<path fill-rule="evenodd" clip-rule="evenodd" d="M210.297 73.1875H82.3281C77.3008 73.1875 73.1875 77.3008 73.1875 82.3281V210.297C73.1875 215.324 77.3008 219.438 82.3281 219.438H137.172C142.199 219.438 146.312 215.324 146.312 210.297V155.453C146.312 150.426 150.426 146.312 155.453 146.312H210.297C215.324 146.312 219.438 142.199 219.438 137.172V82.3281C219.438 77.3008 215.324 73.1875 210.297 73.1875Z" fill="white"/>
<path fill-rule="evenodd" clip-rule="evenodd" d="M210.297 292.562H82.3281C77.3008 292.562 73.1875 296.676 73.1875 301.703V356.547C73.1875 361.574 77.3008 365.688 82.3281 365.688H137.172C142.199 365.688 146.312 369.801 146.312 374.828V429.672C146.312 434.699 150.426 438.812 155.453 438.812H210.297C215.324 438.812 219.438 434.699 219.438 429.672V301.703C219.438 296.676 215.324 292.562 210.297 292.562Z" fill="white"/>
<path fill-rule="evenodd" clip-rule="evenodd" d="M429.672 73.1875H374.828C369.801 73.1875 365.687 77.3008 365.687 82.3281V137.172C365.687 142.199 361.574 146.312 356.547 146.312H301.703C296.676 146.312 292.562 150.426 292.562 155.453V210.297C292.562 215.324 296.676 219.437 301.703 219.437H429.672C434.699 219.437 438.812 215.324 438.812 210.297V82.3281C438.812 77.3008 434.699 73.1875 429.672 73.1875Z" fill="white"/>
</svg>
