<svg width="512" height="512" viewBox="0 0 512 512" fill="none" xmlns="http://www.w3.org/2000/svg">
<rect width="512" height="512" fill="white"/>
<path d="M381.375 282H288.625C284.966 282 282 284.966 282 288.625V381.375C282 385.034 284.966 388 288.625 388H381.375C385.034 388 388 385.034 388 381.375V288.625C388 284.966 385.034 282 381.375 282Z" fill="#FF2222"/>
<path fill-rule="evenodd" clip-rule="evenodd" d="M222.375 123H129.625C125.981 123 123 125.981 123 129.625V222.375C123 226.019 125.981 229 129.625 229H169.375C173.019 229 176 226.019 176 222.375V182.625C176 178.981 178.981 176 182.625 176H222.375C226.019 176 229 173.019 229 169.375V129.625C229 125.981 226.019 123 222.375 123Z" fill="#FF2222"/>
<path fill-rule="evenodd" clip-rule="evenodd" d="M222.375 282H129.625C125.981 282 123 284.981 123 288.625V328.375C123 332.019 125.981 335 129.625 335H169.375C173.019 335 176 337.981 176 341.625V381.375C176 385.019 178.981 388 182.625 388H222.375C226.019 388 229 385.019 229 381.375V288.625C229 284.981 226.019 282 222.375 282Z" fill="#FF2222"/>
<path fill-rule="evenodd" clip-rule="evenodd" d="M381.375 123H341.625C337.981 123 335 125.981 335 129.625V169.375C335 173.019 332.019 176 328.375 176H288.625C284.981 176 282 178.981 282 182.625V222.375C282 226.019 284.981 229 288.625 229H381.375C385.019 229 388 226.019 388 222.375V129.625C388 125.981 385.019 123 381.375 123Z" fill="#FF2222"/>
</svg>
